PathFileType	4	(X/Y/Z)	 s09c0403.trc
DataRate	CameraRate	NumFrames	NumMarkers	Units	OrigDataRate	OrigDataStartFrame	OrigNumFrames
200	200	7	50	mm	200	251	2000
Frame#	Time	racr			lacr			c7			jug			rlel			rdr			llel			ldr			s2			lic			ric			lasi			rasi			rpsi			lpsi			rgt			lgt			rth1			rth2			rth3			rth4			rlfc			rmfc			rsh1			rsh2			rsh3			rsh4			rlmal			rmmal			rcal			rtoe			rmt5			lth1			lth2			lth4			lth3			llfc			lmfc			llmal			lmmal			lcal			lmt5			lsh1			lsh2			lsh3			lsh4			ltoe			SBIKE			LBIKE			RBIKE			
		X1	Y1	Z1	X2	Y2	Z2	X3	Y3	Z3	X4	Y4	Z4	X5	Y5	Z5	X6	Y6	Z6	X7	Y7	Z7	X8	Y8	Z8	X9	Y9	Z9	X10	Y10	Z10	X11	Y11	Z11	X12	Y12	Z12	X13	Y13	Z13	X14	Y14	Z14	X15	Y15	Z15	X16	Y16	Z16	X17	Y17	Z17	X18	Y18	Z18	X19	Y19	Z19	X20	Y20	Z20	X21	Y21	Z21	X22	Y22	Z22	X23	Y23	Z23	X24	Y24	Z24	X25	Y25	Z25	X26	Y26	Z26	X27	Y27	Z27	X28	Y28	Z28	X29	Y29	Z29	X30	Y30	Z30	X31	Y31	Z31	X32	Y32	Z32	X33	Y33	Z33	X34	Y34	Z34	X35	Y35	Z35	X36	Y36	Z36	X37	Y37	Z37	X38	Y38	Z38	X39	Y39	Z39	X40	Y40	Z40	X41	Y41	Z41	X42	Y42	Z42	X43	Y43	Z43	X44	Y44	Z44	X45	Y45	Z45	X46	Y46	Z46	X47	Y47	Z47	X48	Y48	Z48	X49	Y49	Z49	X50	Y50	Z50	
251	1.2550	616.274749	1327.126985	-76.637728	652.767520	1309.173543	-417.507296	594.309426	1368.960184	-250.785349	616.964325	1228.358660	-242.118318	539.042306	1089.920874	23.811309	689.743929	910.877720	-55.460653	536.639491	1089.659262	-557.576935	673.467970	910.912433	-452.525062	125.326463	1152.020653	-288.918804	282.388041	1106.850111	-407.281546	249.313693	1158.744730	-126.214254	308.459166	1049.213268	-371.531586	281.912903	1096.167330	-131.331978	149.816948	1189.479067	-229.931180	168.976612	1174.606282	-336.943961	204.442726	1050.926899	-62.027113	219.900911	980.973197	-439.731671	320.758045	982.117603	-51.997660	406.605933	963.206227	-53.053656	468.372497	900.194211	-46.384429	422.366072	985.985447	-77.647748	533.708404	812.978703	-70.067973	522.664704	795.513498	-169.700806	446.174864	757.599553	-47.631631	390.650265	690.125163	-67.748960	308.000427	659.153650	-72.023188	409.785997	672.852439	-98.010129	228.581112	598.773996	-78.839730	237.351429	612.267906	-155.153040	141.367855	614.763269	-118.115903	357.366968	459.020637	-130.870611	283.280950	491.273296	-63.168882	257.385921	851.318339	-435.419031	303.187262	780.746353	-422.697799	337.382503	791.821290	-409.478095	307.348863	690.957421	-411.656698	323.138082	598.854304	-394.851957	327.620423	582.766424	-299.203574	225.991808	244.835061	-409.134768	247.217981	250.686935	-342.754630	157.525740	214.133557	-372.843488	319.979619	149.528215	-432.015270	288.396471	503.928218	-422.069615	291.811609	417.410838	-415.212798	250.094450	338.893680	-414.720221	316.826780	413.636001	-384.115750	413.818435	158.469122	-363.609713	-64.774244	851.735454	-239.669041	20.912196	84.704243	-442.154234	21.246740	84.157032	-43.825280	
252	1.2600	616.155537	1329.214877	-73.681807	654.703383	1311.596367	-416.486833	595.348770	1372.348005	-249.247040	618.916373	1232.295897	-240.359929	539.384231	1090.484464	23.871068	689.547440	910.677312	-55.835352	539.505245	1091.585050	-556.112740	674.138953	910.481172	-452.283675	128.300105	1152.323953	-290.152438	286.329051	1107.247932	-406.649227	250.629442	1159.840200	-126.346412	311.828935	1050.001877	-370.704187	284.087384	1097.542010	-131.292257	152.279247	1190.222178	-231.373427	171.606023	1175.373683	-337.757304	206.185840	1051.356003	-62.799575	223.010085	981.216150	-439.947280	323.185291	983.663274	-52.449487	409.182208	965.230152	-53.313018	471.350321	902.631084	-46.589280	424.881835	987.977703	-77.845341	537.261887	815.836670	-70.339563	526.618795	798.227373	-170.006727	450.115756	760.096237	-47.868638	394.959946	692.213277	-67.973643	312.648930	661.061934	-72.136267	413.841165	675.017392	-98.537366	233.409000	599.586821	-79.023702	241.802102	613.166090	-155.634087	146.201149	615.107636	-118.044537	363.621872	461.311128	-130.853656	289.138907	492.758834	-63.303905	257.988949	851.742150	-435.487775	302.892840	780.589951	-422.925842	337.103273	790.966790	-409.715263	305.667797	690.647725	-411.919424	320.386025	598.499382	-395.004211	324.976417	582.477133	-299.202548	221.618440	244.998430	-409.051712	243.021511	250.558692	-342.738854	152.886979	215.497180	-372.898012	314.324633	148.323395	-431.920780	285.216088	503.682352	-422.186141	288.247567	417.198027	-415.256982	246.170082	338.859688	-414.726358	313.385935	413.191175	-384.251031	408.302768	155.798855	-363.479602	-64.807747	851.730148	-239.680232	20.904010	84.694146	-442.161853	21.240000	84.136546	-43.831195	
253	1.2650	615.908295	1331.236523	-70.767361	656.252871	1314.374689	-415.374069	596.306578	1375.786954	-247.529189	620.796469	1236.231892	-238.622061	539.536103	1091.099629	23.696480	689.439386	910.530030	-56.465819	542.254311	1093.363348	-554.495896	674.922414	910.173136	-452.134524	130.863100	1153.060635	-291.057534	290.585330	1107.605737	-406.067092	252.478581	1161.141441	-126.303335	315.224946	1050.730886	-369.880617	286.212235	1098.961527	-131.177338	154.336512	1191.025139	-232.163480	174.217395	1176.219483	-338.464549	208.325907	1051.864593	-63.305974	226.052554	981.517914	-440.099373	325.697816	985.049836	-52.919453	411.759230	967.154993	-53.607635	474.264410	904.856116	-46.874411	427.487075	989.176894	-78.606242	540.714273	818.508438	-70.687855	530.469869	800.653349	-170.374918	454.002514	762.326472	-48.288156	399.229751	694.114597	-68.218045	317.147474	662.570775	-72.118818	418.694684	677.015630	-98.178901	238.390850	600.155757	-79.123518	246.204778	613.863374	-155.855107	150.918827	615.106277	-117.969498	369.777234	463.300589	-131.040437	295.126552	494.014964	-63.480398	258.788462	852.275515	-435.640179	302.882457	780.668732	-422.926997	336.907299	790.275820	-410.012324	304.235910	690.511782	-412.391936	318.031151	598.329897	-395.109202	322.896773	582.621772	-298.939125	217.333436	245.553432	-409.053996	238.781329	250.633679	-342.675689	148.396181	217.166718	-372.715303	308.805908	147.402973	-431.766510	282.275312	503.732668	-422.167300	284.853353	417.237781	-415.308672	242.454622	339.080940	-414.689081	310.068086	413.162334	-384.396474	402.856068	153.343123	-363.470129	-64.809503	851.747796	-239.663023	20.904703	84.728796	-442.154308	21.240612	84.146329	-43.826499	
254	1.2700	615.705138	1333.151559	-67.785011	657.669176	1317.109434	-414.232666	597.230851	1379.150372	-245.821616	622.620800	1240.121591	-236.927384	540.057113	1091.692204	23.913146	689.265361	910.337581	-57.245367	544.918092	1094.956905	-552.674823	675.858434	909.923159	-451.973084	133.379907	1153.710460	-291.791945	294.986679	1108.186257	-405.587263	254.498643	1162.281004	-126.267348	318.636742	1051.511388	-369.022907	288.374460	1100.066227	-131.006076	156.359887	1191.990651	-232.908452	176.866031	1177.188395	-339.214887	210.520027	1052.417689	-63.870947	228.992334	981.982634	-440.198704	328.306251	986.446257	-53.372325	414.488926	968.884128	-53.982319	477.259275	906.787418	-47.269387	430.059310	991.091340	-78.824426	544.116650	820.944499	-71.025183	534.138073	802.936351	-170.869953	457.750170	764.333505	-48.851517	403.300500	695.801010	-68.931384	321.519303	663.729133	-72.288340	422.709810	678.432855	-98.798164	243.164879	600.542426	-79.330918	250.911195	614.017503	-155.986441	155.588310	614.787578	-117.897439	375.904841	465.088842	-131.211937	301.010532	495.114263	-63.581009	259.755599	852.963507	-435.767219	302.960507	780.786731	-423.053423	337.085387	789.985277	-410.091416	303.202581	690.635841	-412.568188	315.895847	598.452614	-395.177535	320.473290	582.661838	-299.009926	213.121044	246.219746	-408.997750	234.798819	251.199434	-342.564554	144.053273	218.945089	-372.681238	303.324776	146.764822	-431.710207	279.625088	503.951812	-422.151688	281.658766	417.553099	-415.269985	238.772359	339.658761	-414.682273	306.876105	413.159518	-384.441731	397.376458	151.205314	-363.242229	-64.803277	851.781509	-239.669204	20.928113	84.769719	-442.159985	21.248603	84.166669	-43.818128	
255	1.2750	615.445882	1335.032356	-64.801271	658.911434	1319.841177	-413.072278	598.118505	1382.467471	-243.916271	624.450121	1243.860185	-235.176327	540.602226	1092.186217	24.195976	689.232587	909.751134	-58.137316	547.432063	1096.558741	-550.751971	676.950725	909.934271	-451.798071	136.040128	1154.699201	-292.574870	299.289006	1108.945974	-405.134505	256.471370	1163.517688	-126.101265	321.963587	1052.225149	-368.131308	290.403242	1101.273225	-130.712353	158.402272	1192.763370	-233.467735	179.519400	1178.263204	-339.991208	212.807947	1053.048318	-64.165759	231.778406	982.632648	-439.848079	331.025173	987.749836	-53.890227	417.193626	970.462308	-54.436692	480.209880	908.696537	-47.825912	432.732108	992.653107	-79.146758	547.420831	823.174438	-71.580742	537.538786	805.027859	-171.585985	461.445557	766.079439	-49.401374	407.822093	697.005049	-68.823158	325.849290	664.686631	-72.373197	426.810507	679.796321	-99.320083	247.868566	600.642372	-79.473179	254.906990	614.052998	-156.006817	160.036606	613.916798	-117.968460	382.152380	466.808905	-131.143345	306.870477	496.035289	-63.548356	260.916199	853.790261	-435.906030	303.283075	781.150826	-423.114646	337.554581	789.984120	-410.040454	302.487345	690.969993	-412.640644	314.081883	598.671964	-395.230641	317.540840	582.688786	-300.065428	209.140938	247.225855	-409.041238	231.180648	251.918422	-342.606133	139.838792	221.346673	-372.684774	297.740430	146.241159	-431.537313	277.140988	504.320437	-421.812901	278.663110	417.982677	-415.266641	235.346527	340.393859	-414.690558	303.923424	413.609950	-384.480057	391.883499	148.934711	-363.099398	-64.836315	851.809676	-239.727664	20.947323	84.738906	-442.131143	21.289626	84.121446	-43.800613	
256	1.2800	615.250849	1336.805084	-61.874399	659.937268	1322.593252	-411.967377	598.972786	1385.620543	-241.977827	626.157704	1247.585109	-233.440700	541.177419	1092.508220	24.542564	689.123417	909.593842	-58.889295	549.811226	1097.961752	-548.638546	678.166183	909.919208	-451.581829	138.681885	1155.997442	-293.194951	303.291162	1109.923913	-404.633627	258.525164	1164.756011	-125.990178	325.048077	1053.218850	-367.229401	292.335238	1102.353990	-130.371205	160.526962	1193.976614	-234.094740	182.103729	1179.448924	-340.513046	215.171191	1053.741259	-64.470979	234.584169	983.577649	-439.745416	333.713661	989.036341	-54.550692	419.926752	971.944136	-54.890041	483.166390	910.250405	-48.522476	435.475882	994.186677	-79.564320	550.598048	825.201231	-72.292288	540.799967	806.780527	-172.399477	464.922283	767.608342	-50.209533	411.732990	698.146587	-69.321485	330.040447	665.351159	-72.510814	432.011017	680.590269	-99.204228	252.454727	600.432836	-79.597886	259.983308	613.875213	-156.328844	164.293121	612.813898	-117.945993	388.287850	468.405901	-131.306856	312.763911	496.602389	-63.632623	262.306240	854.833284	-436.058009	303.806091	781.823915	-423.108831	338.099124	790.215914	-409.906523	302.011669	691.669206	-412.697726	312.568184	599.077024	-395.230030	316.079880	583.161324	-299.773264	205.394987	248.531966	-409.093581	227.657356	252.883741	-342.373165	135.763972	224.066853	-372.532372	292.251654	145.951054	-431.496497	274.736785	505.244440	-422.135116	275.835442	418.778287	-415.350259	232.079851	341.389726	-414.683004	301.129254	414.177323	-384.622748	386.429271	146.743111	-363.017059	-64.894580	851.801819	-239.504049	20.945835	84.745502	-442.095320	21.306229	84.154204	-43.784265	
257	1.2850	615.119165	1338.402550	-59.018503	660.888078	1325.216898	-410.814295	599.759473	1388.595945	-240.258909	627.877302	1251.117153	-231.671983	541.705777	1092.721528	24.903819	689.145621	909.434579	-59.498445	551.888652	1099.407409	-546.527696	679.245536	909.930569	-451.138535	141.464692	1157.292202	-293.788417	307.058649	1111.657859	-404.108815	260.535045	1166.041432	-125.774577	327.735563	1054.490572	-365.571770	294.272300	1103.308116	-130.010464	162.608956	1195.199522	-234.513977	184.725948	1180.835180	-341.053275	217.566778	1054.528464	-64.657975	237.363864	984.936747	-439.620464	336.544506	990.237516	-55.128030	422.736812	973.178745	-55.510678	486.073919	911.674837	-49.356629	438.383146	995.589916	-80.291995	553.635174	826.934863	-73.193915	543.843711	808.391085	-173.343847	468.285973	768.861183	-50.997206	415.688044	699.238771	-69.889684	334.054955	665.674874	-72.966685	435.939613	681.495193	-99.633482	256.932366	599.956942	-79.714980	264.342375	613.430271	-156.437325	168.488930	611.303780	-118.133146	394.425355	469.865775	-131.323664	318.469267	497.075969	-63.624101	263.856263	856.073483	-436.171769	304.596090	782.599170	-423.027268	338.859393	790.733262	-409.638054	301.886741	692.513920	-412.755601	311.338897	599.679771	-395.326889	315.072119	583.992591	-299.545899	201.638854	250.020381	-409.085613	224.072308	254.206122	-342.110389	131.832303	227.031519	-372.697737	286.863158	145.949657	-431.388943	272.657940	506.182133	-422.214682	273.179561	419.784520	-415.409067	228.924192	342.618786	-414.704416	298.528285	414.891961	-384.699835	380.933961	145.052126	-362.883150	-64.889775	851.769189	-239.356032	20.941482	84.761591	-442.102936	21.318430	84.145521	-43.763657	
